# xmcd
#
# Track frame offsets: 
#        150
#        17147
#        34095
#        52980
#        66212
#        83172
#        96800
#        113802
#        125967
#        137537
#        151910
#        170387
#        185270
#        196802
#        216155
#        232102
#        245742
#        258930
#        279037
#
# Disc length: 4103 seconds
#
# Revision: 0
# Processed by: cddbd v1.5.2PL0 Copyright (c) Steve Scherf et al.
# Submitted via: ExactAudioCopy v1.0b3
#
DISCID=05100513
DTITLE=Les Humphries Singers - Greatest Hits
DYEAR=1900
DGENRE=Gospel/Country/Pop
TTITLE0=Mama Loo
TTITLE1=Mexico
TTITLE2=Kansas City
TTITLE3=(We'll fly you to the) Promised Land
TTITLE4=Love the one you're with
TTITLE5=We are going down Jordan
TTITLE6=Amazing Grace
TTITLE7=Michael
TTITLE8=Rock my soul
TTITLE9=Blowing in the wind
TTITLE10=New Orleans
TTITLE11=Old man Moses
TTITLE12=Sing Hallelujah
TTITLE13=Carnival
TTITLE14=Do I kill you
TTITLE15=Sing Sang Song
TTITLE16=Motherless child
TTITLE17=Soolaimon
TTITLE18=Mama Loo mega remix '89
EXTD=
EXTT0=
EXTT1=
EXTT2=
EXTT3=
EXTT4=
EXTT5=
EXTT6=
EXTT7=
EXTT8=
EXTT9=
EXTT10=
EXTT11=
EXTT12=
EXTT13=
EXTT14=
EXTT15=
EXTT16=
EXTT17=
EXTT18=
PLAYORDER=
